<svg width="25" height="24" viewBox="0 0 25 24" fill="none" xmlns="http://www.w3.org/2000/svg">
<path d="M6.68173 12.2128C6.68173 11.5641 6.78946 10.9423 6.98173 10.359L3.61627 7.78905C2.96037 9.12079 2.59082 10.6214 2.59082 12.2128C2.59082 13.8028 2.95991 15.3025 3.61491 16.6333L6.97855 14.0583C6.78809 13.4778 6.68173 12.8582 6.68173 12.2128Z" fill="#FBBC05"/>
<path d="M12.5908 6.31206C13.9998 6.31206 15.2726 6.81135 16.2726 7.62837L19.1817 4.72341C17.4089 3.18014 15.1362 2.22695 12.5908 2.22695C8.63894 2.22695 5.24257 4.48692 3.61621 7.78905L6.98167 10.359C7.75712 8.00511 9.96757 6.31206 12.5908 6.31206Z" fill="#EB4335"/>
<path d="M12.5908 18.1135C9.96757 18.1135 7.75712 16.4204 6.98167 14.0665L3.61621 16.636C5.24257 19.9386 8.63894 22.1986 12.5908 22.1986C15.0298 22.1986 17.3585 21.3325 19.1062 19.7098L15.9117 17.2402C15.0103 17.808 13.8753 18.1135 12.5908 18.1135Z" fill="#34A853"/>
<path d="M22.1363 12.2128C22.1363 11.6227 22.0454 10.9872 21.909 10.3972H12.5908V14.2553H17.9545C17.6863 15.5707 16.9563 16.582 15.9117 17.2402L19.1063 19.7098C20.9422 18.0059 22.1363 15.4677 22.1363 12.2128Z" fill="#4285F4"/>
</svg>
