<svg width="210" height="31" viewBox="0 0 210 31" fill="none" xmlns="http://www.w3.org/2000/svg">
<path d="M0.280622 19.392C1.78462 22.56 5.20862 24.448 9.68862 24.448C15.1606 24.448 18.3606 21.664 18.3606 17.536C18.3606 14.336 16.4406 12.288 12.2166 11.264L8.53662 10.4C5.97662 9.792 5.04862 8.928 5.04862 7.616C5.04862 5.856 6.55262 4.8 9.24062 4.8C11.7046 4.8 13.6566 5.696 14.9046 7.392L17.8166 5.248C16.5046 2.72 13.3046 1.152 9.30462 1.152C4.12062 1.152 0.920622 3.84 0.920622 7.68C0.920622 10.848 3.03262 12.96 7.22462 13.952L10.8406 14.816C13.2726 15.424 14.2326 16.288 14.2326 17.728C14.2326 19.616 12.6326 20.8 9.81662 20.8C6.90462 20.8 4.53662 19.552 3.22462 17.28L0.280622 19.392ZM32.1734 7.712V10.336C31.2454 8.416 29.0694 7.264 26.6054 7.264C22.2854 7.264 19.1174 10.816 19.1174 15.872C19.1174 20.896 22.2854 24.448 26.6054 24.448C29.0694 24.448 31.2454 23.328 32.1734 21.408V24H36.0134V7.712H32.1734ZM32.2694 15.872C32.2694 18.848 30.4774 20.896 27.6934 20.896C24.9094 20.896 23.1174 18.848 23.1174 15.872C23.1174 12.832 24.9094 10.816 27.6934 10.816C30.4774 10.816 32.2694 12.832 32.2694 15.872ZM38.9714 24H42.8754V0.575998H38.9714V24ZM57.8334 7.712V10.336C56.9054 8.416 54.7294 7.264 52.2654 7.264C47.9454 7.264 44.7774 10.816 44.7774 15.872C44.7774 20.896 47.9454 24.448 52.2654 24.448C54.7294 24.448 56.9054 23.328 57.8334 21.408V24H61.6734V7.712H57.8334ZM57.9294 15.872C57.9294 18.848 56.1374 20.896 53.3534 20.896C50.5694 20.896 48.7774 18.848 48.7774 15.872C48.7774 12.832 50.5694 10.816 53.3534 10.816C56.1374 10.816 57.9294 12.832 57.9294 15.872ZM74.6794 7.648C74.2634 7.488 73.7834 7.424 73.2714 7.424C71.0634 7.424 69.2714 8.544 68.4714 10.432V7.712H64.6314V24H68.5354V15.968C68.5354 12.64 69.9754 11.136 72.8874 11.136C73.3994 11.136 74.0074 11.2 74.6794 11.296V7.648ZM86.5206 7.712V16.48C86.5206 18.816 84.9846 20.288 82.5846 20.288C80.5046 20.288 79.5126 19.168 79.5126 16.704V7.712H75.6086V17.696C75.6086 21.632 77.7526 23.84 81.2406 23.84C83.6406 23.84 85.6246 22.752 86.5526 20.96V22.368C86.5526 25.6 84.7926 27.36 81.7526 27.36C79.9926 27.36 78.2326 26.784 76.8566 25.728L75.0966 28.576C76.6326 30.016 79.1926 30.848 81.9766 30.848C87.3526 30.848 90.3926 27.84 90.3926 22.368V7.712H86.5206Z" fill="#FC8900"/>
<path d="M116.35 8.864C116.35 4.224 113.502 1.6 108.286 1.6H98.9741V24H103.038V16.128H108.286C113.534 16.128 116.35 13.568 116.35 8.864ZM112.094 8.864C112.094 11.328 110.942 12.448 108.03 12.448H103.038V5.344H108.03C110.942 5.344 112.094 6.4 112.094 8.864ZM129.64 7.712V10.336C128.712 8.416 126.536 7.264 124.072 7.264C119.752 7.264 116.584 10.816 116.584 15.872C116.584 20.896 119.752 24.448 124.072 24.448C126.536 24.448 128.712 23.328 129.64 21.408V24H133.48V7.712H129.64ZM129.736 15.872C129.736 18.848 127.944 20.896 125.16 20.896C122.376 20.896 120.584 18.848 120.584 15.872C120.584 12.832 122.376 10.816 125.16 10.816C127.944 10.816 129.736 12.832 129.736 15.872ZM146.966 7.712V16.48C146.966 18.816 145.43 20.288 143.03 20.288C140.95 20.288 139.958 19.168 139.958 16.704V7.712H136.054V17.696C136.054 21.632 138.198 23.84 141.686 23.84C144.086 23.84 146.07 22.752 146.998 20.96V22.368C146.998 25.6 145.238 27.36 142.198 27.36C140.438 27.36 138.678 26.784 137.302 25.728L135.542 28.576C137.078 30.016 139.638 30.848 142.422 30.848C147.798 30.848 150.838 27.84 150.838 22.368V7.712H146.966ZM174.024 12.8C174.024 5.824 169.48 1.6 162.984 1.6H154.152V24H162.984C169.48 24 174.024 19.776 174.024 12.8ZM169.768 12.8C169.768 17.632 167.304 20.224 162.984 20.224H158.216V5.376H162.984C167.304 5.376 169.768 7.968 169.768 12.8ZM188.223 7.712V10.336C187.295 8.416 185.119 7.264 182.655 7.264C178.335 7.264 175.167 10.816 175.167 15.872C175.167 20.896 178.335 24.448 182.655 24.448C185.119 24.448 187.295 23.328 188.223 21.408V24H192.063V7.712H188.223ZM188.319 15.872C188.319 18.848 186.527 20.896 183.743 20.896C180.959 20.896 179.167 18.848 179.167 15.872C179.167 12.832 180.959 10.816 183.743 10.816C186.527 10.816 188.319 12.832 188.319 15.872ZM205.549 7.712V16.48C205.549 18.816 204.013 20.288 201.613 20.288C199.533 20.288 198.541 19.168 198.541 16.704V7.712H194.637V17.696C194.637 21.632 196.781 23.84 200.269 23.84C202.669 23.84 204.653 22.752 205.581 20.96V22.368C205.581 25.6 203.821 27.36 200.781 27.36C199.021 27.36 197.261 26.784 195.885 25.728L194.125 28.576C195.661 30.016 198.221 30.848 201.005 30.848C206.381 30.848 209.421 27.84 209.421 22.368V7.712H205.549Z" fill="#1C468A"/>
</svg>
