<svg width="153" height="12" viewBox="0 0 153 12" fill="none" xmlns="http://www.w3.org/2000/svg">
<path d="M5.256 4.464V5.52H7.416V7.368C6.972 7.8 6.156 8.076 5.196 8.076C3.228 8.076 1.968 6.852 1.968 4.836C1.968 2.856 3.204 1.536 5.052 1.536C6.108 1.536 6.948 1.956 7.464 2.724L8.364 2.076C7.692 1.032 6.516 0.431999 5.04 0.431999C2.532 0.431999 0.732 2.244 0.732 4.824C0.708 7.332 2.496 9.204 5.196 9.168C6.648 9.168 7.884 8.664 8.544 7.812V4.464H5.256ZM15.8916 6.3C15.9156 6.12 15.9276 5.94 15.9276 5.76C15.9276 3.972 14.7156 2.748 13.0236 2.748C11.2356 2.748 9.96356 4.116 9.96356 5.976C9.96356 7.86 11.2476 9.168 13.1196 9.168C14.2356 9.168 15.1716 8.712 15.7596 7.896L15.0276 7.248C14.5356 7.848 13.8996 8.148 13.1436 8.148C12.0036 8.148 11.2476 7.464 11.1156 6.3H15.8916ZM11.1396 5.436C11.3196 4.392 12.0036 3.78 13.0236 3.78C14.0196 3.78 14.6916 4.38 14.7876 5.436H11.1396ZM17.9062 7.38C17.9062 8.52 18.5423 9.096 19.8023 9.096C20.1983 9.096 20.5703 9.048 20.9183 8.94V7.992C20.5703 8.064 20.2583 8.1 19.9823 8.1C19.3103 8.1 19.0343 7.86 19.0343 7.272V3.888H20.8943V2.916H19.0343V1.116H17.9062V2.916H16.7063V3.888H17.9062V7.38ZM31.3295 5.964C31.3295 4.08 30.1295 2.748 28.4735 2.748C27.4655 2.748 26.6135 3.228 26.2655 3.996V2.916H25.1375V11.4H26.2655V7.92C26.6135 8.688 27.4655 9.168 28.4735 9.168C30.1295 9.168 31.3295 7.836 31.3295 5.964ZM30.1655 5.964C30.1655 6.6 29.9855 7.116 29.6135 7.524C29.2535 7.92 28.7735 8.124 28.1855 8.124C27.5975 8.124 27.1175 7.92 26.7575 7.524C26.3975 7.116 26.2175 6.6 26.2175 5.964C26.2175 4.68 26.9975 3.792 28.1855 3.792C28.7735 3.792 29.2535 3.996 29.6135 4.404C29.9855 4.8 30.1655 5.328 30.1655 5.964ZM37.645 2.916V3.996C37.297 3.228 36.445 2.748 35.449 2.748C33.793 2.748 32.569 4.08 32.569 5.964C32.569 7.836 33.793 9.168 35.449 9.168C36.445 9.168 37.297 8.688 37.645 7.92V9H38.773V2.916H37.645ZM37.693 5.964C37.693 6.6 37.513 7.116 37.153 7.524C36.793 7.92 36.313 8.124 35.725 8.124C35.137 8.124 34.657 7.92 34.285 7.524C33.925 7.116 33.745 6.6 33.745 5.964C33.745 5.328 33.925 4.8 34.285 4.404C34.657 3.996 35.137 3.792 35.725 3.792C36.913 3.792 37.693 4.68 37.693 5.964ZM40.6606 0.96C40.6606 1.392 40.9726 1.716 41.4166 1.716C41.8606 1.716 42.1726 1.392 42.1726 0.96C42.1726 0.528 41.8606 0.204 41.4166 0.204C40.9726 0.204 40.6606 0.528 40.6606 0.96ZM40.8526 9H41.9806V2.916H40.8526V9ZM48.7075 0.215999V3.996C48.3595 3.228 47.4955 2.748 46.4995 2.748C44.8555 2.748 43.6315 4.08 43.6315 5.964C43.6315 7.836 44.8555 9.168 46.4995 9.168C47.4955 9.168 48.3595 8.688 48.7075 7.92V9H49.8355V0.215999H48.7075ZM48.7555 5.964C48.7555 6.6 48.5755 7.116 48.2155 7.524C47.8555 7.92 47.3755 8.124 46.7875 8.124C46.1995 8.124 45.7195 7.92 45.3475 7.524C44.9875 7.116 44.8075 6.6 44.8075 5.964C44.8075 5.328 44.9875 4.8 45.3475 4.404C45.7195 3.996 46.1995 3.792 46.7875 3.792C47.9755 3.792 48.7555 4.68 48.7555 5.964ZM62.1481 2.916L60.6601 7.644L59.1121 2.916H57.9241L56.3641 7.656L54.8881 2.916H53.7481L55.7161 9H56.9521L58.5121 4.236L60.0721 9H61.3201L63.2881 2.916H62.1481ZM69.9351 5.088C69.9351 3.6 69.1311 2.748 67.7751 2.748C66.8151 2.748 66.0471 3.18 65.6991 3.912V0.215999H64.5711V9H65.6991V5.412C65.6991 4.416 66.4311 3.792 67.4751 3.792C68.3871 3.792 68.8071 4.272 68.8071 5.364V9H69.9351V5.088ZM77.4619 6.3C77.4859 6.12 77.4979 5.94 77.4979 5.76C77.4979 3.972 76.2859 2.748 74.5939 2.748C72.8059 2.748 71.5339 4.116 71.5339 5.976C71.5339 7.86 72.8179 9.168 74.6899 9.168C75.8059 9.168 76.7419 8.712 77.3299 7.896L76.5979 7.248C76.1059 7.848 75.4699 8.148 74.7139 8.148C73.5739 8.148 72.8179 7.464 72.6859 6.3H77.4619ZM72.7099 5.436C72.8899 4.392 73.5739 3.78 74.5939 3.78C75.5899 3.78 76.2619 4.38 76.3579 5.436H72.7099ZM84.4898 5.088C84.4898 3.6 83.6858 2.748 82.3298 2.748C81.3698 2.748 80.6018 3.18 80.2538 3.912V2.916H79.1258V9H80.2538V5.412C80.2538 4.416 80.9858 3.792 82.0298 3.792C82.9418 3.792 83.3618 4.272 83.3618 5.364V9H84.4898V5.088ZM93.3428 2.916V6.324C93.3428 7.296 92.6108 7.944 91.5548 7.944C90.6548 7.944 90.2348 7.476 90.2348 6.372V2.916H89.1068V6.648C89.1068 8.148 89.8988 8.988 91.2428 8.988C92.2148 8.988 92.9948 8.556 93.3428 7.824V8.4C93.3428 9.828 92.6588 10.536 91.4108 10.536C90.7028 10.536 90.0188 10.296 89.5268 9.864L88.9148 10.668C89.4908 11.244 90.4148 11.568 91.4588 11.568C93.3788 11.568 94.4708 10.452 94.4708 8.4V2.916H93.3428ZM96.1198 5.964C96.1198 7.728 97.3798 9.168 99.2758 9.168C101.148 9.168 102.42 7.728 102.42 5.964C102.42 4.212 101.148 2.748 99.2758 2.748C97.3798 2.748 96.1198 4.212 96.1198 5.964ZM101.244 5.964C101.244 6.6 101.064 7.116 100.704 7.524C100.344 7.92 99.8638 8.124 99.2758 8.124C98.6878 8.124 98.2078 7.92 97.8358 7.524C97.4758 7.116 97.2958 6.6 97.2958 5.964C97.2958 5.328 97.4758 4.8 97.8358 4.404C98.2078 3.996 98.6878 3.792 99.2758 3.792C100.464 3.792 101.244 4.68 101.244 5.964ZM103.943 6.72C103.943 8.184 105.011 9.168 106.595 9.168C107.399 9.168 108.047 8.952 108.527 8.508C109.007 8.064 109.247 7.464 109.247 6.72V2.916H108.119V6.636C108.119 7.608 107.567 8.124 106.595 8.124C105.623 8.124 105.071 7.608 105.071 6.636V2.916H103.943V6.72ZM119.306 5.088C119.306 3.6 118.502 2.748 117.146 2.748C116.186 2.748 115.418 3.18 115.07 3.912V2.916H113.942V9H115.07V5.412C115.07 4.416 115.802 3.792 116.846 3.792C117.758 3.792 118.178 4.272 118.178 5.364V9H119.306V5.088ZM126.833 6.3C126.857 6.12 126.869 5.94 126.869 5.76C126.869 3.972 125.657 2.748 123.965 2.748C122.177 2.748 120.905 4.116 120.905 5.976C120.905 7.86 122.189 9.168 124.061 9.168C125.177 9.168 126.113 8.712 126.701 7.896L125.969 7.248C125.477 7.848 124.841 8.148 124.085 8.148C122.945 8.148 122.189 7.464 122.057 6.3H126.833ZM122.081 5.436C122.261 4.392 122.945 3.78 123.965 3.78C124.961 3.78 125.633 4.38 125.729 5.436H122.081ZM134.005 6.3C134.029 6.12 134.041 5.94 134.041 5.76C134.041 3.972 132.829 2.748 131.137 2.748C129.349 2.748 128.077 4.116 128.077 5.976C128.077 7.86 129.361 9.168 131.233 9.168C132.349 9.168 133.285 8.712 133.873 7.896L133.141 7.248C132.649 7.848 132.013 8.148 131.257 8.148C130.117 8.148 129.361 7.464 129.229 6.3H134.005ZM129.253 5.436C129.433 4.392 130.117 3.78 131.137 3.78C132.133 3.78 132.805 4.38 132.901 5.436H129.253ZM140.325 0.215999V3.996C139.977 3.228 139.113 2.748 138.117 2.748C136.473 2.748 135.249 4.08 135.249 5.964C135.249 7.836 136.473 9.168 138.117 9.168C139.113 9.168 139.977 8.688 140.325 7.92V9H141.453V0.215999H140.325ZM140.373 5.964C140.373 6.6 140.193 7.116 139.833 7.524C139.473 7.92 138.993 8.124 138.405 8.124C137.817 8.124 137.337 7.92 136.965 7.524C136.605 7.116 136.425 6.6 136.425 5.964C136.425 5.328 136.605 4.8 136.965 4.404C137.337 3.996 137.817 3.792 138.405 3.792C139.593 3.792 140.373 4.68 140.373 5.964ZM146.082 0.96C146.082 1.392 146.394 1.716 146.838 1.716C147.282 1.716 147.594 1.392 147.594 0.96C147.594 0.528 147.282 0.204 146.838 0.204C146.394 0.204 146.082 0.528 146.082 0.96ZM146.274 9H147.402V2.916H146.274V9ZM149.941 7.38C149.941 8.52 150.577 9.096 151.837 9.096C152.233 9.096 152.605 9.048 152.953 8.94V7.992C152.605 8.064 152.293 8.1 152.017 8.1C151.345 8.1 151.069 7.86 151.069 7.272V3.888H152.929V2.916H151.069V1.116H149.941V2.916H148.741V3.888H149.941V7.38Z" fill="#656464"/>
</svg>
