<svg width="21" height="14" viewBox="0 0 21 14" fill="none" xmlns="http://www.w3.org/2000/svg">
<path d="M19.5 2.15C18.8789 1.87035 18.1509 1.98841 17.65 2.45L15.5 4.45V3C15.5 1.34315 14.1569 0 12.5 0H3.5C1.84315 0 0.5 1.34315 0.5 3V11C0.5 12.6569 1.84315 14 3.5 14H12.5C14.1569 14 15.5 12.6569 15.5 11V9.55L17.66 11.55C17.978 11.8378 18.3911 11.9981 18.82 12C19.058 11.9994 19.2932 11.9483 19.51 11.85C20.1133 11.606 20.5087 11.0208 20.51 10.37V3.63C20.507 2.97674 20.1072 2.39089 19.5 2.15Z" fill="white"/>
</svg>
